<svg class="" xml:space="preserve" width="0.4in" height="0.4in" style="shape-rendering:geometricPrecision; text-rendering:geometricPrecision; image-rendering:optimizeQuality" viewBox="-1291 0 2070 2400">
    <defs>
        <style type="text/css">
            <![CDATA[
            .fil3 {
                fill: #0E5499
            }

            .fil00 {
                fill: #ffffff
            }

            .fil2 {
                fill: #8E9FCC
            }

            .fil1 {
                fill: #A34E1C
            }
            ]]>
        </style>
    </defs>
    <g id="Ebene 1">
    </g>
    <g id="Hintergrund">
    </g>
    <g id="Hilfslinien anzeigen">
    </g>
    <g id="Vordergrund">
        <g>
            <path id="38496952" class="fil00" d="M-1287 404l961 0 0 47 -914 0 0 1851 1850 0 0 -915 47 0 0 962 -1944 0 0 -1945 0 0z" />
            <path id="38497040" class="fil1" d="M-309 2152l-228 -228 1316 -1317 0 457 -1088 1088 0 0z" />
            <path id="38497128" class="fil2" d="M-589 1872l-229 -229 1369 -1368 228 0 0 228 -1368 1369 0 0z" />
            <path id="38497216" class="fil3" d="M-870 1591l-228 -229 1087 -1088 457 1 -1316 1316 0 0z" />
            <path id="38497304" class="fil00" d="M-344 2193l-786 -1 -1 -787 787 788 0 0z" />

            <g>
                <path id="38500384" class="fil00" d="M-1239 6l-48 0 0 334 48 0 0 -131 0 0c0,-14 0,-21 -1,-34 13,15 24,28 31,36l0 0 121 129 68 0 -169 -176 157 -158 -64 0 -117 121 0 0c-8,9 -13,15 -27,31 1,-12 1,-17 1,-40l0 0 0 -112 0 0z" />
                <path id="38500472" class="fil00" d="M-667 20c-29,-11 -57,-16 -91,-16 -53,0 -97,15 -131,44 -35,30 -51,70 -51,123 0,105 71,172 182,172 36,0 64,-5 97,-16l0 0 0 -170 -118 0 0 41 71 0 0 97 0 0c-20,6 -29,7 -47,7 -38,0 -78,-15 -101,-39 -21,-22 -33,-56 -33,-92 0,-75 54,-127 134,-127 32,0 58,7 85,22l0 0 3 -46 0 0z" />
                <path id="38500560" class="fil00" d="M-343 12c-24,-8 -47,-12 -73,-12 -63,0 -105,36 -105,91 0,42 21,68 74,91l0 0 19 9 0 0c36,16 51,34 51,59 0,34 -27,56 -68,56 -21,0 -40,-5 -66,-17l0 0 -5 44 0 0c24,9 49,14 77,14 68,0 114,-41 114,-101 0,-43 -18,-66 -75,-94l0 0 -18 -9 0 0c-41,-20 -54,-34 -54,-57 0,-27 25,-46 60,-46 19,0 36,4 63,14l0 0 6 -42 0 0z" />
            </g>
        </g>
    </g>
</svg>